<?xml version="1.0" encoding="UTF-8"?>
<svg width="479px" height="228px" viewBox="0 0 479 228" version="1.1" xmlns="http://www.w3.org/2000/svg" xmlns:xlink="http://www.w3.org/1999/xlink">
    <title>Group 2</title>
    <g id="Page-1" stroke="none" stroke-width="1" fill="none" fill-rule="evenodd">
        <g id="Group-2">
            <rect id="Rectangle" fill="#FFFFFF" x="0" y="0" width="479" height="228"></rect>
            <rect id="Rectangle" stroke="#000000" x="212.5" y="72.5" width="52" height="30"></rect>
            <rect id="Rectangle" stroke="#000000" x="72.5" y="149.5" width="52" height="30"></rect>
            <rect id="Rectangle" stroke="#000000" x="29.5" y="72.5" width="19" height="19"></rect>
            <rect id="Rectangle" stroke="#000000" x="69.5" y="72.5" width="19" height="19"></rect>
            <rect id="Rectangle" stroke="#000000" x="109.5" y="72.5" width="19" height="19"></rect>
            <rect id="Rectangle" stroke="#000000" x="149.5" y="72.5" width="19" height="19"></rect>
            <rect id="Rectangle" stroke="#000000" x="309.5" y="72.5" width="19" height="19"></rect>
            <rect id="Rectangle" stroke="#000000" x="349.5" y="72.5" width="19" height="19"></rect>
            <rect id="Rectangle" stroke="#000000" x="389.5" y="72.5" width="19" height="19"></rect>
            <rect id="Rectangle" stroke="#000000" x="429.5" y="72.5" width="19" height="19"></rect>
            <g id="Group" transform="translate(36.096000, 77.432000)" fill="#000000" fill-rule="nonzero">
                <g id="2">
                    <path d="M5.76,7.632 L5.76,8.568 L0.072,8.568 L0.072,7.128 C0.072,6.744 0.136,6.41 0.264,6.126 C0.392,5.842 0.574,5.598 0.81,5.394 C1.046,5.19 1.332,5.02 1.668,4.884 C2.004,4.748 2.384,4.632 2.808,4.536 C3.52,4.376 4.034,4.148 4.35,3.852 C4.666,3.556 4.824,3.192 4.824,2.76 L4.824,2.688 C4.824,2.472 4.788,2.26 4.716,2.052 C4.644,1.844 4.532,1.656 4.38,1.488 C4.228,1.32 4.034,1.186 3.798,1.086 C3.562,0.986 3.28,0.936 2.952,0.936 C2.336,0.936 1.858,1.124 1.518,1.5 C1.178,1.876 1.008,2.376 1.008,3 L1.008,3.528 L0,3.528 L0,2.928 C0,2.544 0.064,2.176 0.192,1.824 C0.32,1.472 0.508,1.16 0.756,0.888 C1.004,0.616 1.312,0.4 1.68,0.24 C2.048,0.08 2.472,0 2.952,0 C3.44,0 3.864,0.074 4.224,0.222 C4.584,0.37 4.884,0.566 5.124,0.81 C5.364,1.054 5.542,1.33 5.658,1.638 C5.774,1.946 5.832,2.26 5.832,2.58 L5.832,2.796 C5.832,3.436 5.632,3.982 5.232,4.434 C4.832,4.886 4.192,5.208 3.312,5.4 C2.544,5.568 1.98,5.79 1.62,6.066 C1.26,6.342 1.08,6.744 1.08,7.272 L1.08,7.632 L5.76,7.632 Z" id="Path"></path>
                </g>
                <g id="8" transform="translate(319.988000, 0.000000)">
                    <path d="M2.808,8.736 C2.384,8.736 2,8.678 1.656,8.562 C1.312,8.446 1.016,8.286 0.768,8.082 C0.52,7.878 0.33,7.638 0.198,7.362 C0.066,7.086 0,6.784 0,6.456 L0,6.312 C0,6.024 0.044,5.768 0.132,5.544 C0.22,5.32 0.336,5.124 0.48,4.956 C0.624,4.788 0.79,4.648 0.978,4.536 C1.166,4.424 1.36,4.34 1.56,4.284 L1.56,4.14 C1.376,4.084 1.204,4 1.044,3.888 C0.884,3.776 0.742,3.644 0.618,3.492 C0.494,3.34 0.396,3.166 0.324,2.97 C0.252,2.774 0.216,2.56 0.216,2.328 L0.216,2.184 C0.216,1.864 0.28,1.57 0.408,1.302 C0.536,1.034 0.718,0.804 0.954,0.612 C1.19,0.42 1.47,0.27 1.794,0.162 C2.118,0.054 2.48,0 2.88,0 L2.952,0 C3.344,0 3.704,0.054 4.032,0.162 C4.36,0.27 4.642,0.42 4.878,0.612 C5.114,0.804 5.296,1.034 5.424,1.302 C5.552,1.57 5.616,1.864 5.616,2.184 L5.616,2.328 C5.616,2.56 5.58,2.774 5.508,2.97 C5.436,3.166 5.338,3.34 5.214,3.492 C5.09,3.644 4.946,3.776 4.782,3.888 C4.618,4 4.448,4.084 4.272,4.14 L4.272,4.284 C4.472,4.34 4.666,4.424 4.854,4.536 C5.042,4.648 5.208,4.788 5.352,4.956 C5.496,5.124 5.612,5.32 5.7,5.544 C5.788,5.768 5.832,6.024 5.832,6.312 L5.832,6.456 C5.832,6.784 5.766,7.086 5.634,7.362 C5.502,7.638 5.312,7.878 5.064,8.082 C4.816,8.286 4.52,8.446 4.176,8.562 C3.832,8.678 3.448,8.736 3.024,8.736 L2.808,8.736 Z M2.988,7.824 C3.532,7.824 3.974,7.684 4.314,7.404 C4.654,7.124 4.824,6.76 4.824,6.312 L4.824,6.24 C4.824,5.744 4.65,5.36 4.302,5.088 C3.954,4.816 3.504,4.68 2.952,4.68 L2.88,4.68 C2.328,4.68 1.878,4.816 1.53,5.088 C1.182,5.36 1.008,5.744 1.008,6.24 L1.008,6.312 C1.008,6.76 1.178,7.124 1.518,7.404 C1.858,7.684 2.3,7.824 2.844,7.824 L2.988,7.824 Z M2.916,3.744 C3.42,3.744 3.828,3.612 4.14,3.348 C4.452,3.084 4.608,2.752 4.608,2.352 L4.608,2.28 C4.608,1.872 4.454,1.542 4.146,1.29 C3.838,1.038 3.428,0.912 2.916,0.912 C2.404,0.912 1.994,1.038 1.686,1.29 C1.378,1.542 1.224,1.872 1.224,2.28 L1.224,2.352 C1.224,2.752 1.38,3.084 1.692,3.348 C2.004,3.612 2.412,3.744 2.916,3.744 Z" id="Shape"></path>
                </g>
                <g id="7" transform="translate(280.096000, 0.168000)">
                    <path d="M0,0 L5.616,0 L5.616,1.464 L2.076,6.816 C1.908,7.072 1.78,7.292 1.692,7.476 C1.604,7.66 1.56,7.848 1.56,8.04 L1.56,8.4 L0.576,8.4 L0.576,7.968 C0.576,7.824 0.59,7.688 0.618,7.56 C0.646,7.432 0.69,7.302 0.75,7.17 C0.81,7.038 0.886,6.898 0.978,6.75 C1.07,6.602 1.18,6.432 1.308,6.24 L4.752,1.08 L4.752,0.936 L0,0.936 L0,0 Z" id="Path"></path>
                </g>
                <g id="9" transform="translate(359.988000, 0.000000)">
                    <path d="M1.152,6.12 C1.152,6.64 1.312,7.058 1.632,7.374 C1.952,7.69 2.396,7.848 2.964,7.848 C3.236,7.848 3.486,7.8 3.714,7.704 C3.942,7.608 4.138,7.47 4.302,7.29 C4.466,7.11 4.594,6.898 4.686,6.654 C4.778,6.41 4.824,6.136 4.824,5.832 L4.824,4.584 L4.68,4.584 C4.496,4.936 4.232,5.212 3.888,5.412 C3.544,5.612 3.144,5.712 2.688,5.712 C2.296,5.712 1.936,5.652 1.608,5.532 C1.28,5.412 0.996,5.234 0.756,4.998 C0.516,4.762 0.33,4.476 0.198,4.14 C0.066,3.804 0,3.42 0,2.988 L0,2.844 C0,2.428 0.072,2.046 0.216,1.698 C0.36,1.35 0.562,1.05 0.822,0.798 C1.082,0.546 1.39,0.35 1.746,0.21 C2.102,0.07 2.492,0 2.916,0 C3.34,0 3.73,0.07 4.086,0.21 C4.442,0.35 4.75,0.544 5.01,0.792 C5.27,1.04 5.472,1.336 5.616,1.68 C5.76,2.024 5.832,2.4 5.832,2.808 L5.832,5.832 C5.832,6.28 5.758,6.682 5.61,7.038 C5.462,7.394 5.258,7.698 4.998,7.95 C4.738,8.202 4.432,8.396 4.08,8.532 C3.728,8.668 3.348,8.736 2.94,8.736 C2.532,8.736 2.156,8.676 1.812,8.556 C1.468,8.436 1.172,8.262 0.924,8.034 C0.676,7.806 0.484,7.53 0.348,7.206 C0.212,6.882 0.144,6.52 0.144,6.12 L1.152,6.12 Z M2.916,0.888 C2.628,0.888 2.366,0.936 2.13,1.032 C1.894,1.128 1.692,1.264 1.524,1.44 C1.356,1.616 1.228,1.822 1.14,2.058 C1.052,2.294 1.008,2.548 1.008,2.82 L1.008,2.964 C1.008,3.244 1.056,3.498 1.152,3.726 C1.248,3.954 1.38,4.15 1.548,4.314 C1.716,4.478 1.916,4.604 2.148,4.692 C2.38,4.78 2.636,4.824 2.916,4.824 C3.188,4.824 3.44,4.778 3.672,4.686 C3.904,4.594 4.106,4.468 4.278,4.308 C4.45,4.148 4.584,3.956 4.68,3.732 C4.776,3.508 4.824,3.268 4.824,3.012 L4.824,2.784 C4.824,2.52 4.78,2.272 4.692,2.04 C4.604,1.808 4.476,1.606 4.308,1.434 C4.14,1.262 3.938,1.128 3.702,1.032 C3.466,0.936 3.204,0.888 2.916,0.888 Z" id="Shape"></path>
                </g>
                <g id="1" transform="translate(59.440000, 83.168000)">
                    <polygon id="Path" points="2.52 7.464 2.52 0.444 2.376 0.444 0.996 3.6 0 3.6 0 3.528 1.572 0 3.528 0 3.528 7.464 5.904 7.464 5.904 8.4 0.144 8.4 0.144 7.464"></polygon>
                </g>
                <g id="6" transform="translate(200.488000, 6.000000)">
                    <path d="M4.68,2.616 C4.68,2.096 4.52,1.678 4.2,1.362 C3.88,1.046 3.436,0.888 2.868,0.888 C2.596,0.888 2.346,0.936 2.118,1.032 C1.89,1.128 1.694,1.266 1.53,1.446 C1.366,1.626 1.238,1.84 1.146,2.088 C1.054,2.336 1.008,2.608 1.008,2.904 L1.008,4.152 L1.152,4.152 C1.344,3.8 1.618,3.524 1.974,3.324 C2.33,3.124 2.728,3.024 3.168,3.024 C3.552,3.024 3.908,3.086 4.236,3.21 C4.564,3.334 4.846,3.516 5.082,3.756 C5.318,3.996 5.502,4.286 5.634,4.626 C5.766,4.966 5.832,5.352 5.832,5.784 L5.832,5.928 C5.832,6.344 5.758,6.724 5.61,7.068 C5.462,7.412 5.258,7.708 4.998,7.956 C4.738,8.204 4.43,8.396 4.074,8.532 C3.718,8.668 3.332,8.736 2.916,8.736 C2.5,8.736 2.114,8.668 1.758,8.532 C1.402,8.396 1.094,8.206 0.834,7.962 C0.574,7.718 0.37,7.426 0.222,7.086 C0.074,6.746 0,6.372 0,5.964 L0,2.904 C0,2.464 0.076,2.064 0.228,1.704 C0.38,1.344 0.588,1.038 0.852,0.786 C1.116,0.534 1.422,0.34 1.77,0.204 C2.118,0.068 2.492,0 2.892,0 C3.292,0 3.664,0.06 4.008,0.18 C4.352,0.3 4.648,0.474 4.896,0.702 C5.144,0.93 5.338,1.206 5.478,1.53 C5.618,1.854 5.688,2.216 5.688,2.616 L4.68,2.616 Z M2.916,7.848 C3.204,7.848 3.466,7.802 3.702,7.71 C3.938,7.618 4.14,7.488 4.308,7.32 C4.476,7.152 4.604,6.952 4.692,6.72 C4.78,6.488 4.824,6.232 4.824,5.952 L4.824,5.808 C4.824,5.528 4.776,5.272 4.68,5.04 C4.584,4.808 4.452,4.608 4.284,4.44 C4.116,4.272 3.914,4.142 3.678,4.05 C3.442,3.958 3.188,3.912 2.916,3.912 C2.644,3.912 2.392,3.96 2.16,4.056 C1.928,4.152 1.726,4.284 1.554,4.452 C1.382,4.62 1.248,4.816 1.152,5.04 C1.056,5.264 1.008,5.504 1.008,5.76 L1.008,5.988 C1.008,6.252 1.052,6.498 1.14,6.726 C1.228,6.954 1.356,7.152 1.524,7.32 C1.692,7.488 1.894,7.618 2.13,7.71 C2.366,7.802 2.628,7.848 2.916,7.848 Z" id="Shape"></path>
                </g>
                <g id="4" transform="translate(79.820000, 0.168000)">
                    <path d="M2.94,0 L4.896,0 L4.896,5.88 L6.192,5.88 L6.192,6.816 L4.896,6.816 L4.896,8.4 L3.888,8.4 L3.888,6.816 L0,6.816 L0,5.424 L2.94,0 Z M0.864,5.736 L0.864,5.88 L3.888,5.88 L3.888,0.432 L3.744,0.432 L0.864,5.736 Z" id="Shape"></path>
                </g>
                <g id="5" transform="translate(120.024000, 0.168000)">
                    <path d="M0.144,4.44 L0.144,0 L5.4,0 L5.4,0.936 L1.128,0.936 L1.128,3.936 L1.272,3.936 C1.352,3.776 1.456,3.622 1.584,3.474 C1.712,3.326 1.862,3.196 2.034,3.084 C2.206,2.972 2.4,2.882 2.616,2.814 C2.832,2.746 3.072,2.712 3.336,2.712 C3.72,2.712 4.074,2.776 4.398,2.904 C4.722,3.032 5,3.212 5.232,3.444 C5.464,3.676 5.646,3.956 5.778,4.284 C5.91,4.612 5.976,4.976 5.976,5.376 L5.976,5.592 C5.976,5.992 5.912,6.37 5.784,6.726 C5.656,7.082 5.468,7.398 5.22,7.674 C4.972,7.95 4.664,8.168 4.296,8.328 C3.928,8.488 3.504,8.568 3.024,8.568 C2.536,8.568 2.104,8.496 1.728,8.352 C1.352,8.208 1.036,8.008 0.78,7.752 C0.524,7.496 0.33,7.194 0.198,6.846 C0.066,6.498 0,6.12 0,5.712 L0,5.376 L1.008,5.376 L1.008,5.64 C1.008,6.304 1.194,6.802 1.566,7.134 C1.938,7.466 2.424,7.632 3.024,7.632 C3.344,7.632 3.626,7.574 3.87,7.458 C4.114,7.342 4.318,7.186 4.482,6.99 C4.646,6.794 4.768,6.566 4.848,6.306 C4.928,6.046 4.968,5.776 4.968,5.496 L4.968,5.424 C4.968,5.176 4.926,4.944 4.842,4.728 C4.758,4.512 4.642,4.324 4.494,4.164 C4.346,4.004 4.166,3.878 3.954,3.786 C3.742,3.694 3.512,3.648 3.264,3.648 C3.096,3.648 2.942,3.672 2.802,3.72 C2.662,3.768 2.54,3.83 2.436,3.906 C2.332,3.982 2.246,4.068 2.178,4.164 C2.11,4.26 2.064,4.352 2.04,4.44 L0.144,4.44 Z" id="Path"></path>
                </g>
                <g id="3" transform="translate(39.988000, 0.168000)">
                    <path d="M2.088,4.224 L2.088,2.832 L4.824,1.08 L4.824,0.936 L0.072,0.936 L0.072,0 L5.688,0 L5.688,1.536 L2.952,3.288 L2.952,3.432 L3.432,3.432 C3.752,3.432 4.06,3.484 4.356,3.588 C4.652,3.692 4.914,3.844 5.142,4.044 C5.37,4.244 5.554,4.49 5.694,4.782 C5.834,5.074 5.904,5.412 5.904,5.796 L5.904,6.012 C5.904,6.372 5.832,6.708 5.688,7.02 C5.544,7.332 5.344,7.602 5.088,7.83 C4.832,8.058 4.53,8.238 4.182,8.37 C3.834,8.502 3.456,8.568 3.048,8.568 C2.576,8.568 2.152,8.496 1.776,8.352 C1.4,8.208 1.08,8.01 0.816,7.758 C0.552,7.506 0.35,7.21 0.21,6.87 C0.07,6.53 0,6.168 0,5.784 L0,5.136 L1.008,5.136 L1.008,5.712 C1.008,6.016 1.058,6.286 1.158,6.522 C1.258,6.758 1.398,6.958 1.578,7.122 C1.758,7.286 1.972,7.412 2.22,7.5 C2.468,7.588 2.736,7.632 3.024,7.632 C3.288,7.632 3.534,7.588 3.762,7.5 C3.99,7.412 4.188,7.29 4.356,7.134 C4.524,6.978 4.656,6.794 4.752,6.582 C4.848,6.37 4.896,6.144 4.896,5.904 L4.896,5.832 C4.896,5.328 4.736,4.934 4.416,4.65 C4.096,4.366 3.696,4.224 3.216,4.224 L2.088,4.224 Z" id="Path"></path>
                </g>
                <g id="10" transform="translate(396.268000, 0.000000)">
                    <polygon id="Path" points="2.52 7.632 2.52 0.612 2.376 0.612 0.996 3.768 0 3.768 0 3.696 1.572 0.168 3.528 0.168 3.528 7.632 5.904 7.632 5.904 8.568 0.144 8.568 0.144 7.632"></polygon>
                    <path d="M7.356,3.432 C7.356,2.344 7.616,1.5 8.136,0.9 C8.656,0.3 9.38,0 10.308,0 C11.236,0 11.96,0.3 12.48,0.9 C13,1.5 13.26,2.344 13.26,3.432 L13.26,5.304 C13.26,6.424 13,7.276 12.48,7.86 C11.96,8.444 11.236,8.736 10.308,8.736 C9.38,8.736 8.656,8.444 8.136,7.86 C7.616,7.276 7.356,6.424 7.356,5.304 L7.356,3.432 Z M10.308,7.824 C10.956,7.824 11.442,7.598 11.766,7.146 C12.09,6.694 12.252,6.056 12.252,5.232 L12.252,3.504 C12.252,3.12 12.212,2.77 12.132,2.454 C12.052,2.138 11.93,1.866 11.766,1.638 C11.602,1.41 11.398,1.232 11.154,1.104 C10.91,0.976 10.628,0.912 10.308,0.912 C9.98,0.912 9.696,0.976 9.456,1.104 C9.216,1.232 9.014,1.41 8.85,1.638 C8.686,1.866 8.564,2.138 8.484,2.454 C8.404,2.77 8.364,3.12 8.364,3.504 L8.364,5.232 C8.364,6.056 8.526,6.694 8.85,7.146 C9.174,7.598 9.66,7.824 10.308,7.824 Z M9.54,4.368 C9.54,4.16 9.616,3.98 9.768,3.828 C9.92,3.676 10.1,3.6 10.308,3.6 C10.516,3.6 10.696,3.676 10.848,3.828 C11,3.98 11.076,4.16 11.076,4.368 C11.076,4.576 11,4.756 10.848,4.908 C10.696,5.06 10.516,5.136 10.308,5.136 C10.1,5.136 9.92,5.06 9.768,4.908 C9.616,4.756 9.54,4.576 9.54,4.368 Z" id="Shape"></path>
                </g>
            </g>
        </g>
    </g>
</svg>